<?xml version="1.0" encoding="iso-8859-1"?>
<!-- Generator: Adobe Illustrator 16.0.0, SVG Export Plug-In . SVG Version: 6.00 Build 0)  -->
<!DOCTYPE svg PUBLIC "-//W3C//DTD SVG 1.1//EN" "http://www.w3.org/Graphics/SVG/1.1/DTD/svg11.dtd">
<svg id="svg" version="1.1" xmlns="http://www.w3.org/2000/svg" xmlns:xlink="http://www.w3.org/1999/xlink" width="400" height="413.00813008130086" viewBox="0, 0, 400,413.00813008130086" fill="#ffffff">
<g id="svgg">
<path id="path0" d="M99.187 66.577 C 89.465 69.726,77.668 76.870,69.715 84.425 C 64.608 89.276,63.989 88.916,67.029 82.862 C 69.314 78.314,69.021 77.810,64.912 79.222 C 55.588 82.428,44.039 93.248,34.366 107.841 C 33.538 109.090,33.455 108.592,33.880 104.942 L 34.393 100.535 30.487 103.316 C 17.513 112.556,9.318 134.992,12.507 152.541 C 13.068 155.628,12.963 155.933,11.184 156.379 C 6.944 157.443,-1.394 165.543,0.155 167.093 C 0.306 167.244,2.978 166.661,6.092 165.798 C 14.843 163.371,15.440 163.662,10.612 168.002 C 5.788 172.339,2.439 178.305,2.439 182.562 L 2.439 185.502 5.488 183.132 C 10.619 179.141,10.489 179.071,10.001 185.559 C 9.281 195.151,15.087 203.082,20.401 199.764 C 22.315 198.569,21.749 197.856,18.383 197.225 C 13.285 196.269,11.417 185.950,14.876 177.846 C 16.453 174.152,15.699 173.975,10.656 176.858 C 8.691 177.981,6.893 178.708,6.659 178.475 C 6.083 177.899,11.487 170.143,15.470 165.829 C 17.246 163.905,18.699 162.158,18.699 161.946 C 18.699 161.505,11.543 162.219,7.317 163.082 C 3.247 163.913,5.680 161.261,12.154 157.811 L 16.901 155.281 16.194 152.234 C 13.517 140.706,16.613 127.392,24.859 114.976 L 29.675 107.724 29.914 114.113 L 30.153 120.502 33.166 115.536 C 40.673 103.166,67.297 75.263,63.853 83.375 C 62.715 86.057,61.522 93.256,62.007 94.519 C 62.347 95.405,63.672 94.576,67.098 91.336 C 74.532 84.307,100.729 67.937,102.196 69.405 C 102.399 69.608,101.806 72.476,100.879 75.780 C 99.054 82.285,97.824 93.328,98.677 95.551 C 99.106 96.670,100.286 95.877,104.926 91.351 C 111.416 85.022,112.689 84.245,111.911 87.086 C 110.608 91.844,110.274 103.540,111.454 103.061 C 115.836 101.282,115.752 101.286,115.136 102.891 C 114.809 103.742,113.958 107.098,113.243 110.349 C 111.729 117.240,111.670 117.269,107.820 113.008 C 106.204 111.220,104.673 109.756,104.417 109.756 C 101.895 109.756,86.964 123.141,83.602 128.415 C 81.664 131.456,80.664 132.195,77.343 133.045 C 65.324 136.121,23.200 163.154,34.553 160.505 C 38.201 159.654,39.608 159.888,42.284 161.794 C 45.428 164.033,45.363 165.038,42.073 165.053 C 40.620 165.060,38.882 165.420,38.211 165.854 C 37.402 166.377,37.333 166.646,38.006 166.654 C 40.572 166.686,51.315 178.374,54.100 184.165 C 57.853 191.968,57.811 193.895,53.862 195.157 C 52.185 195.692,49.167 196.966,47.154 197.986 C 45.142 199.007,42.937 200.018,42.254 200.233 C 40.523 200.777,40.263 208.275,41.867 211.377 C 46.493 220.322,59.967 221.280,68.012 213.235 C 71.194 210.052,72.056 210.271,76.732 215.447 C 81.892 221.158,82.451 224.136,78.759 226.238 C 76.549 227.496,76.290 227.996,76.725 230.169 C 77.134 232.212,76.790 233.091,74.808 235.073 C 67.889 241.992,58.392 256.587,59.085 259.237 C 59.302 260.067,58.305 265.995,56.870 272.411 C 55.071 280.458,54.546 284.171,55.179 284.382 C 55.684 284.551,56.098 285.572,56.098 286.653 C 56.098 287.734,56.442 288.618,56.862 288.618 C 57.283 288.618,57.119 289.598,56.497 290.795 C 55.190 293.315,55.551 294.309,57.772 294.309 C 59.839 294.309,60.112 293.409,53.942 306.970 C 49.856 315.950,48.788 319.014,49.574 319.500 C 50.147 319.854,50.363 320.550,50.056 321.047 C 49.749 321.544,49.846 321.951,50.272 321.951 C 51.176 321.951,52.033 319.997,52.033 317.933 C 52.033 317.138,53.447 313.418,55.175 309.667 C 56.903 305.915,59.145 300.565,60.157 297.777 C 62.268 291.962,64.228 289.609,64.228 292.890 C 64.228 298.333,69.482 296.661,71.706 290.511 C 72.683 287.808,72.691 287.805,78.183 287.805 C 84.386 287.805,84.831 288.187,85.594 294.173 C 85.840 296.110,86.256 297.909,86.517 298.170 C 87.659 299.312,87.925 297.321,87.197 293.093 L 86.411 288.532 88.531 288.778 C 90.015 288.951,90.728 289.573,90.910 290.854 C 91.264 293.342,92.683 293.180,92.683 290.650 C 92.683 286.871,99.563 287.677,100.861 291.608 C 101.717 294.203,102.118 307.060,101.451 310.569 C 101.069 312.582,102.803 312.441,103.374 310.414 C 104.251 307.300,104.124 298.940,103.124 293.962 C 102.405 290.379,102.409 289.139,103.143 288.685 C 103.875 288.233,103.810 285.318,102.866 276.363 C 102.186 269.912,101.629 263.804,101.628 262.788 L 101.626 260.943 104.957 262.642 C 108.864 264.635,110.019 264.359,112.102 260.933 C 114.228 257.438,123.803 252.901,126.069 254.316 C 132.440 258.294,139.837 258.529,139.837 254.752 C 139.837 254.191,140.787 252.783,141.948 251.622 C 143.428 250.142,143.922 248.970,143.603 247.700 C 143.271 246.373,143.613 245.677,144.882 245.099 C 147.453 243.927,148.558 241.769,147.471 240.045 C 146.783 238.954,146.859 238.419,147.799 237.732 C 151.591 234.959,142.998 228.747,136.553 229.602 C 134.187 229.916,131.849 229.741,130.557 229.152 C 128.708 228.309,128.182 228.428,126.415 230.089 C 124.205 232.165,123.818 233.807,125.407 234.374 C 126.111 234.625,125.855 235.355,124.573 236.751 C 123.556 237.859,122.450 240.379,122.115 242.350 C 121.450 246.260,117.886 248.373,117.886 244.857 C 117.886 243.449,117.111 243.190,111.382 242.683 C 106.136 242.219,104.873 241.848,104.852 240.769 C 104.838 240.033,104.299 238.735,103.656 237.884 C 102.582 236.466,102.871 235.924,107.137 231.358 C 120.036 217.551,137.779 194.755,143.755 184.310 C 155.107 164.470,145.895 142.423,116.768 119.720 L 114.430 117.898 116.830 107.323 C 118.150 101.507,118.945 96.748,118.597 96.748 C 118.248 96.748,117.029 97.173,115.888 97.693 C 114.748 98.213,113.655 98.479,113.461 98.285 C 113.122 97.946,115.621 84.499,116.730 80.691 C 117.639 77.569,111.594 80.796,104.987 86.959 C 103.481 88.364,102.073 89.336,101.858 89.121 C 101.460 88.722,104.614 75.892,106.828 68.902 L 108.052 65.041 105.855 65.084 C 104.647 65.108,101.646 65.780,99.187 66.577 M313.821 89.193 C 302.166 91.220,286.179 95.660,286.179 96.871 C 286.179 97.944,293.454 113.859,295.693 117.683 C 298.009 121.640,297.543 121.496,302.822 119.895 L 306.864 118.669 303.838 121.767 C 300.085 125.611,300.086 125.620,304.149 129.760 L 307.485 133.159 292.564 143.090 C 259.589 165.037,259.438 165.372,268.016 197.420 L 270.916 208.255 268.791 210.473 C 265.991 213.396,266.085 214.039,269.915 218.194 L 273.163 221.718 271.826 224.397 C 270.178 227.700,270.834 228.968,275.552 231.604 L 279.005 233.534 278.464 242.173 C 277.720 254.043,273.399 257.377,257.518 258.334 L 250.402 258.762 250.912 256.210 C 251.208 254.733,251.086 253.659,250.623 253.659 C 250.182 253.659,248.216 252.381,246.253 250.820 C 240.599 246.325,229.900 247.321,227.902 252.528 C 227.650 253.186,226.315 253.659,224.710 253.659 C 220.179 253.659,220.516 259.101,225.091 259.832 C 229.544 260.544,230.219 261.169,230.401 264.744 C 230.569 268.019,231.323 269.919,232.456 269.919 C 232.814 269.919,232.933 269.004,232.719 267.886 C 232.464 266.551,232.698 265.854,233.401 265.854 C 234.234 265.854,234.255 265.637,233.496 264.878 C 232.959 264.341,232.520 263.273,232.520 262.504 C 232.520 260.312,240.656 260.779,241.532 263.022 C 242.074 264.408,242.170 264.321,242.219 262.398 C 242.251 261.169,242.734 260.111,243.293 260.047 C 243.852 259.984,242.846 259.709,241.057 259.437 C 234.749 258.479,236.397 254.940,243.293 254.638 C 248.888 254.393,250.162 255.204,247.835 257.531 C 246.280 259.086,250.547 260.163,258.271 260.163 L 265.217 260.163 264.667 262.398 C 264.365 263.628,263.612 265.659,262.994 266.912 C 262.377 268.164,262.063 269.687,262.296 270.296 C 262.530 270.904,260.308 275.002,257.359 279.400 C 251.731 287.795,251.608 288.880,256.107 290.383 C 256.631 290.558,256.635 293.453,256.117 298.780 C 255.682 303.252,255.317 310.098,255.306 313.993 L 255.285 321.076 251.829 321.996 C 245.313 323.730,243.235 328.542,247.730 331.485 C 251.774 334.133,264.295 333.528,270.650 330.378 L 275.791 327.830 280.756 329.847 C 287.611 332.633,297.086 334.959,301.575 334.959 C 310.742 334.959,311.829 327.702,303.523 321.951 C 302.297 321.102,300.753 317.593,298.442 310.400 C 294.530 298.227,294.652 299.187,297.014 299.187 C 298.751 299.187,298.986 298.664,299.885 292.792 C 302.131 278.116,310.102 248.503,312.433 246.175 C 315.226 243.385,315.522 238.143,313.008 235.990 C 311.321 234.546,310.887 233.333,312.057 233.333 C 312.429 233.333,313.930 235.001,315.394 237.040 L 318.056 240.746 322.632 240.174 C 325.149 239.860,329.168 239.147,331.563 238.590 C 336.643 237.409,336.220 238.126,329.638 241.857 L 325.020 244.474 327.348 246.118 C 334.484 251.158,339.957 253.090,342.996 251.640 C 345.759 250.323,346.086 250.342,351.343 252.132 L 356.815 253.995 361.358 250.866 C 375.665 241.012,392.633 212.388,398.381 188.411 C 401.764 174.303,401.072 172.561,388.868 164.454 C 381.672 159.674,382.236 161.222,381.264 143.583 C 379.250 107.057,374.821 99.020,352.846 92.012 C 343.215 88.941,323.472 87.514,313.821 89.193 M348.780 93.931 C 370.221 98.586,373.251 103.781,378.413 144.731 C 379.927 156.742,381.538 167.232,381.993 168.041 C 382.610 169.137,382.700 168.611,382.349 165.973 L 381.877 162.434 386.239 165.567 C 388.638 167.290,392.037 170.065,393.792 171.734 L 396.984 174.770 396.437 180.654 C 394.445 202.090,371.722 242.761,357.682 250.021 C 352.724 252.586,346.297 249.444,349.508 246.026 C 352.539 242.800,351.352 243.037,345.493 246.827 L 339.767 250.531 335.737 247.945 C 330.817 244.787,330.820 244.915,335.569 241.285 C 341.665 236.627,344.906 232.939,342.276 233.653 C 338.541 234.667,326.463 237.218,323.041 237.715 C 319.760 238.192,319.558 238.085,316.221 234.099 C 312.187 229.281,312.439 228.011,318.396 223.129 C 326.438 216.540,333.090 214.891,335.951 218.779 C 340.558 225.038,349.827 227.191,356.817 223.625 C 366.742 218.562,363.582 205.465,351.667 202.278 C 346.881 200.998,346.568 200.287,348.817 195.811 C 353.186 187.113,354.969 185.898,358.725 189.058 C 362.132 191.925,362.430 191.000,359.575 186.413 C 354.733 178.635,354.230 175.311,358.165 177.104 C 362.816 179.223,361.468 177.699,352.709 170.935 C 341.564 162.329,324.390 145.607,324.390 143.361 C 324.390 142.488,325.671 139.648,327.236 137.049 C 328.801 134.450,330.081 132.204,330.081 132.058 C 330.081 131.326,324.590 133.856,321.141 136.177 L 317.230 138.809 310.554 132.099 C 302.957 124.462,302.944 125.038,310.850 119.598 C 315.946 116.093,315.848 116.023,306.309 116.367 L 297.983 116.667 294.123 107.724 C 292.000 102.805,290.259 98.521,290.254 98.203 C 290.237 97.242,300.184 94.486,307.003 93.562 C 310.529 93.084,314.512 92.538,315.854 92.348 C 321.088 91.608,342.913 92.657,348.780 93.931 M224.768 98.984 C 223.362 107.417,222.165 108.512,218.249 104.950 C 215.504 102.451,213.498 101.802,212.670 103.142 C 212.431 103.529,214.414 105.841,217.078 108.281 C 221.798 112.605,221.901 112.789,221.123 115.500 C 220.684 117.030,220.325 119.473,220.325 120.930 C 220.325 124.611,222.289 124.340,223.231 120.528 C 224.180 116.687,225.716 116.612,229.676 120.215 C 232.477 122.764,232.774 122.859,234.024 121.599 C 235.273 120.340,235.004 119.910,230.153 115.398 C 225.283 110.868,225.002 110.415,225.884 108.526 C 229.053 101.745,229.662 98.652,228.131 97.120 C 226.229 95.218,225.312 95.726,224.768 98.984 M205.248 108.537 C 205.525 109.431,206.604 112.541,207.645 115.447 C 210.271 122.779,212.195 128.915,212.195 129.961 C 212.195 130.839,203.339 133.665,183.740 139.042 C 176.657 140.985,167.400 144.094,167.727 144.420 C 167.924 144.618,171.883 143.691,176.523 142.360 C 199.751 135.697,212.207 132.432,212.859 132.835 C 213.256 133.080,214.412 136.311,215.428 140.014 C 216.444 143.718,218.143 149.492,219.203 152.846 C 222.360 162.836,222.362 162.830,216.667 164.066 C 213.984 164.648,210.508 165.469,208.943 165.890 C 207.378 166.311,202.073 167.570,197.154 168.687 C 186.110 171.195,181.856 172.371,182.286 172.801 C 182.468 172.982,186.436 172.242,191.105 171.154 C 208.509 167.102,222.145 164.151,222.372 164.389 C 222.501 164.524,223.193 165.915,223.909 167.480 C 225.162 170.217,225.223 168.199,223.986 164.913 C 223.682 164.104,226.738 163.033,235.788 160.776 C 247.673 157.813,254.276 155.631,253.552 154.907 C 253.356 154.711,249.732 155.600,245.500 156.883 C 235.052 160.050,224.105 162.540,223.427 161.904 C 223.120 161.617,222.142 158.821,221.254 155.691 C 220.365 152.561,218.512 146.063,217.136 141.252 C 215.760 136.440,214.634 132.342,214.634 132.145 C 214.634 131.948,219.940 130.086,226.426 128.007 C 232.911 125.927,238.420 123.897,238.669 123.495 C 239.364 122.369,238.374 122.579,230.910 125.142 C 222.405 128.061,215.804 130.081,214.773 130.081 C 214.347 130.081,212.438 125.500,210.531 119.901 C 208.624 114.302,206.542 109.088,205.905 108.316 C 204.827 107.009,204.781 107.025,205.248 108.537 M110.046 118.186 C 147.289 147.315,152.414 167.566,130.366 198.471 C 118.694 214.833,97.408 239.024,94.684 239.024 C 89.384 239.024,83.782 232.749,83.758 226.786 C 83.734 220.761,80.741 214.784,75.736 210.764 C 73.654 209.092,71.649 207.358,71.280 206.911 C 70.853 206.394,70.435 206.543,70.133 207.317 C 67.775 213.375,55.417 218.052,49.650 215.070 C 38.092 209.093,42.036 200.205,58.130 195.955 C 62.688 194.752,64.674 193.496,62.019 193.496 C 60.610 193.496,60.138 192.753,59.420 189.404 C 57.756 181.648,53.575 175.070,47.008 169.879 L 42.932 166.658 45.467 166.151 C 49.757 165.292,48.522 161.405,42.810 157.788 L 40.444 156.290 46.848 151.750 C 55.200 145.829,69.402 138.784,77.879 136.356 C 84.398 134.488,84.677 134.307,86.397 130.831 C 88.098 127.392,101.280 113.007,102.729 113.008 C 103.112 113.008,106.404 115.338,110.046 118.186 M94.341 125.166 C 90.545 127.567,95.683 129.120,102.262 127.560 C 105.713 126.741,109.634 126.034,110.976 125.987 C 113.082 125.914,113.193 125.807,111.789 125.203 C 109.587 124.257,95.824 124.228,94.341 125.166 M104.286 130.502 C 94.409 133.204,86.650 141.306,82.614 153.133 C 82.250 154.200,81.686 154.462,80.684 154.029 C 63.500 146.608,54.241 171.179,68.211 187.131 C 69.906 189.066,71.127 191.138,70.922 191.734 C 70.704 192.373,71.839 192.007,73.690 190.842 C 78.398 187.880,82.723 186.694,88.885 186.675 C 92.924 186.662,94.129 186.426,93.308 185.808 C 90.445 183.655,92.861 180.923,98.075 180.420 C 108.034 179.460,117.372 172.444,122.499 162.070 C 131.835 143.179,121.763 125.721,104.286 130.502 M115.202 134.224 C 132.174 142.441,120.949 173.069,99.172 177.962 C 94.479 179.016,93.662 178.506,93.018 174.115 C 92.712 172.031,92.154 169.502,91.779 168.496 C 91.153 166.816,91.331 166.667,93.960 166.667 C 99.655 166.667,102.871 160.239,99.164 156.261 C 95.913 152.771,90.291 153.321,88.475 157.306 C 87.478 159.494,84.553 158.218,84.553 155.596 C 84.553 142.145,103.816 128.713,115.202 134.224 M313.161 138.682 L 317.141 142.405 320.361 139.495 C 324.483 135.771,324.635 135.825,322.648 140.318 L 320.997 144.050 324.188 147.838 C 325.944 149.921,332.835 156.688,339.503 162.876 L 351.626 174.126 352.925 179.706 L 354.224 185.286 351.471 187.955 C 349.957 189.423,347.640 192.781,346.322 195.417 C 345.005 198.053,343.569 200.642,343.131 201.170 C 342.546 201.875,343.941 202.603,348.371 203.906 C 359.186 207.088,363.682 214.683,357.927 220.048 C 351.799 225.759,344.563 224.451,336.501 216.174 C 332.591 212.159,331.539 211.452,331.911 213.091 C 332.022 213.583,330.572 214.455,328.688 215.029 C 318.088 218.255,312.444 224.444,307.712 238.032 C 307.293 239.237,296.233 244.715,294.221 244.715 C 293.225 244.715,292.159 242.555,290.191 236.545 L 287.515 228.374 294.164 221.691 C 301.201 214.617,301.910 213.055,299.006 211.022 C 295.398 208.495,291.335 209.569,286.029 214.453 C 283.611 216.679,279.262 216.544,276.888 214.170 C 273.801 211.083,265.873 180.575,265.860 171.730 C 265.850 165.058,274.414 157.129,298.613 141.406 C 310.343 133.785,308.329 134.162,313.161 138.682 M152.072 138.442 C 152.050 138.792,152.945 140.879,154.060 143.079 C 155.956 146.821,155.995 147.139,154.670 147.991 C 153.339 148.847,153.342 148.875,154.713 148.446 C 155.911 148.072,156.919 149.561,160.311 156.718 C 167.273 171.406,168.293 173.703,168.293 174.709 C 168.293 175.242,168.672 176.120,169.136 176.660 C 169.600 177.200,172.618 182.927,175.843 189.385 C 179.069 195.844,182.195 201.281,182.791 201.467 C 183.451 201.674,183.115 200.581,181.930 198.667 C 180.196 195.868,170.732 176.721,170.732 176.012 C 170.732 175.856,171.372 175.562,172.154 175.357 C 173.215 175.080,173.107 174.961,171.731 174.891 C 170.537 174.830,169.550 174.006,168.939 172.561 C 168.420 171.331,165.617 165.386,162.712 159.350 C 159.806 153.313,157.386 148.191,157.334 147.967 C 157.086 146.900,152.106 137.886,152.072 138.442 M189.209 141.344 C 184.689 144.030,180.655 158.529,184.065 159.837 C 184.780 160.112,185.366 161.029,185.366 161.876 C 185.366 163.602,186.655 163.963,187.230 162.398 C 187.436 161.839,187.878 162.410,188.211 163.666 C 188.663 165.364,189.158 165.808,190.141 165.394 C 190.868 165.088,192.586 164.780,193.958 164.711 C 197.794 164.518,201.646 160.168,201.491 156.206 C 201.424 154.501,201.636 152.674,201.962 152.146 C 202.653 151.028,201.016 145.528,199.992 145.528 C 199.609 145.528,199.083 144.855,198.822 144.033 C 197.858 140.996,192.377 139.462,189.209 141.344 M196.474 146.986 C 197.333 152.124,197.860 154.184,198.531 155.027 C 199.042 155.670,198.740 156.545,197.615 157.669 C 196.691 158.593,195.935 159.898,195.935 160.569 C 195.935 162.572,192.129 161.997,189.970 159.669 C 187.456 156.957,187.537 150.831,190.156 145.699 L 191.936 142.211 194.089 143.904 C 195.273 144.835,196.346 146.222,196.474 146.986 M304.878 143.651 C 280.912 147.663,274.330 178.049,297.427 178.049 L 302.356 178.049 301.178 180.868 C 294.743 196.268,319.099 199.090,331.182 184.344 C 343.311 169.543,337.307 154.158,322.451 161.971 C 321.058 162.703,320.982 162.565,321.625 160.453 C 324.165 152.101,321.618 146.458,314.331 144.294 C 310.306 143.099,308.792 142.996,304.878 143.651 M161.090 145.648 C 159.587 146.080,158.543 146.619,158.768 146.844 C 158.993 147.069,160.954 146.708,163.126 146.041 C 167.417 144.723,165.554 144.363,161.090 145.648 M316.637 148.296 C 321.223 151.794,321.573 159.956,317.308 163.909 C 314.619 166.401,314.024 166.357,314.024 163.667 C 314.024 159.224,308.708 157.111,305.687 160.354 C 303.371 162.841,303.884 165.813,306.991 167.900 L 309.511 169.592 307.283 172.261 C 302.407 178.101,290.536 177.201,286.696 170.699 C 278.596 156.987,303.551 138.315,316.637 148.296 M80.190 156.844 C 85.857 160.300,91.778 171.545,87.931 171.545 C 85.230 171.545,83.331 174.472,84.446 176.919 C 85.274 178.736,85.817 178.987,88.295 178.698 L 91.179 178.361 90.639 181.254 C 90.342 182.845,90.040 184.182,89.968 184.225 C 89.896 184.268,87.365 184.700,84.343 185.185 C 81.322 185.669,77.675 186.652,76.239 187.368 C 72.782 189.093,70.406 187.471,67.263 181.242 C 59.524 165.906,68.200 149.533,80.190 156.844 M93.089 159.756 C 93.089 162.177,89.916 161.935,89.569 159.488 C 89.346 157.912,89.619 157.638,91.195 157.862 C 92.458 158.041,93.089 158.672,93.089 159.756 M313.313 163.250 C 313.956 164.290,312.465 166.116,311.473 165.503 C 310.168 164.697,310.361 162.602,311.741 162.602 C 312.385 162.602,313.093 162.893,313.313 163.250 M334.241 164.323 C 339.892 169.973,328.719 187.418,317.329 190.729 C 308.023 193.435,301.965 190.951,302.667 184.718 C 303.132 180.596,303.884 179.553,304.979 181.511 C 305.806 182.988,309.330 183.461,310.110 182.199 C 310.357 181.799,309.990 181.253,309.293 180.985 C 308.597 180.718,308.258 180.125,308.541 179.667 C 308.824 179.210,309.443 179.075,309.918 179.368 C 310.409 179.672,310.621 179.425,310.411 178.794 C 310.208 178.185,309.155 177.471,308.070 177.207 C 306.181 176.747,306.299 176.532,310.862 172.122 C 319.556 163.719,330.116 160.197,334.241 164.323 M273.760 170.530 C 268.962 175.831,270.726 185.882,277.114 189.641 C 280.841 191.835,284.983 183.983,281.301 181.707 C 280.822 181.411,280.483 182.311,280.475 183.895 C 280.448 189.861,276.939 189.442,274.278 183.156 C 270.615 174.501,276.293 167.857,281.249 175.000 C 287.682 184.272,290.295 185.895,286.091 178.007 C 281.877 170.102,276.886 167.075,273.760 170.530 M225.327 171.545 C 225.327 172.215,225.820 174.045,226.423 175.610 C 227.025 177.175,227.519 177.907,227.519 177.236 C 227.519 176.565,227.025 174.736,226.423 173.171 C 225.820 171.606,225.327 170.874,225.327 171.545 M86.585 175.610 C 86.192 176.246,85.724 176.293,85.182 175.751 C 84.735 175.304,84.635 174.509,84.959 173.984 C 85.353 173.347,85.820 173.300,86.362 173.842 C 86.810 174.289,86.910 175.085,86.585 175.610 M175.203 173.984 L 173.577 174.682 175.203 174.682 C 176.098 174.682,177.561 174.368,178.455 173.984 L 180.081 173.285 178.455 173.285 C 177.561 173.285,176.098 173.599,175.203 173.984 M53.018 201.739 C 51.548 202.680,49.801 204.503,49.136 205.790 C 47.866 208.246,48.684 208.986,50.392 206.928 C 51.117 206.054,51.797 205.943,52.877 206.521 C 56.572 208.498,60.663 206.949,62.046 203.049 C 62.324 202.266,63.294 201.626,64.202 201.626 C 65.110 201.626,65.854 201.260,65.854 200.813 C 65.854 199.189,55.877 199.908,53.018 201.739 M59.716 202.373 C 60.292 203.306,57.989 205.691,56.512 205.691 C 54.859 205.691,52.846 204.788,52.846 204.046 C 52.846 202.614,58.946 201.128,59.716 202.373 M284.146 209.375 C 286.575 211.366,288.618 211.980,288.618 210.720 C 288.618 210.064,283.413 207.290,282.289 207.346 C 281.969 207.362,282.805 208.275,284.146 209.375 M345.614 212.602 C 347.145 214.871,348.693 216.260,349.690 216.260 C 350.574 216.260,352.188 217.221,353.277 218.396 C 355.023 220.280,355.319 220.367,355.792 219.135 C 357.256 215.322,350.984 208.952,345.759 208.946 L 343.144 208.943 345.614 212.602 M272.879 212.974 C 273.280 214.979,273.988 215.576,277.127 216.561 C 284.428 218.850,285.075 218.858,286.508 216.670 C 287.995 214.402,293.374 211.382,295.928 211.382 C 299.740 211.382,298.611 213.879,291.525 221.121 L 284.467 228.333 284.944 238.760 C 285.890 259.484,286.541 263.815,288.099 259.756 C 289.251 256.755,292.683 259.872,292.683 263.920 C 292.683 265.400,285.978 268.495,283.538 268.142 C 280.968 267.769,280.659 265.666,280.569 247.895 L 280.488 231.968 278.252 230.966 C 272.805 228.524,272.225 227.819,273.552 225.252 C 274.218 223.965,275.228 222.740,275.796 222.530 C 276.453 222.287,275.423 220.696,272.967 218.160 C 269.119 214.186,268.192 211.886,270.122 211.108 C 272.042 210.333,272.399 210.575,272.879 212.974 M351.629 213.826 C 351.904 214.270,351.631 214.634,351.024 214.634 C 349.798 214.634,347.967 213.059,347.967 212.004 C 347.967 211.198,350.910 212.662,351.629 213.826 M81.397 227.846 C 81.450 228.404,81.428 229.347,81.347 229.939 C 81.128 231.557,85.101 236.388,88.480 238.614 C 92.182 241.052,98.374 242.239,98.374 240.510 C 98.374 238.574,100.121 237.300,101.363 238.330 C 102.817 239.537,102.724 242.036,101.192 242.893 C 100.357 243.361,101.252 243.611,103.908 243.651 C 106.088 243.684,108.645 243.956,109.591 244.257 L 111.311 244.802 109.644 247.999 C 108.728 249.758,107.778 253.397,107.535 256.086 C 107.291 258.775,106.763 260.976,106.363 260.976 C 104.526 260.976,101.290 257.917,99.956 254.921 C 98.723 252.151,98.480 251.943,98.431 253.618 C 98.387 255.167,98.157 255.393,97.398 254.634 C 95.768 253.004,92.896 253.537,91.116 255.801 C 88.501 259.125,88.937 260.940,91.711 258.282 C 96.546 253.650,98.509 256.410,93.932 261.406 C 91.025 264.580,90.885 265.854,93.444 265.854 C 94.258 265.854,95.384 266.409,95.948 267.088 C 97.382 268.817,94.824 271.545,91.769 271.545 C 90.070 271.545,89.602 271.858,89.950 272.764 C 90.574 274.392,94.220 274.317,96.074 272.638 C 97.907 270.980,98.008 266.882,96.263 264.954 C 95.032 263.594,96.621 259.477,98.417 259.375 C 98.891 259.348,100.850 279.742,100.827 284.457 L 100.813 287.206 87.808 286.831 C 72.780 286.398,72.685 286.358,76.756 282.189 C 78.657 280.242,79.710 278.465,79.517 277.529 C 79.189 275.932,78.452 275.828,74.187 276.777 L 71.545 277.365 71.556 273.845 C 71.574 268.181,72.208 266.768,74.659 266.931 C 76.500 267.053,76.911 266.643,77.569 264.024 C 77.991 262.348,78.728 260.976,79.208 260.976 C 79.689 260.976,81.103 259.695,82.352 258.130 C 87.454 251.736,87.333 256.608,82.167 265.568 C 77.688 273.337,77.757 274.334,82.724 273.590 C 87.061 272.940,87.812 272.202,87.706 268.699 L 87.632 266.260 86.775 268.420 C 86.043 270.267,81.806 272.321,80.802 271.317 C 80.671 271.186,82.071 268.783,83.914 265.979 C 89.831 256.976,87.876 248.574,81.520 255.691 C 79.923 257.480,78.833 258.329,79.098 257.578 C 81.183 251.670,80.054 251.210,77.838 257.065 C 76.368 260.951,74.934 264.362,74.650 264.645 C 74.048 265.248,66.323 261.659,63.512 259.470 L 61.577 257.963 64.866 252.356 C 70.115 243.406,76.474 234.794,78.158 234.353 C 79.433 234.020,79.621 233.465,79.206 231.254 C 78.687 228.489,79.186 226.829,80.536 226.829 C 80.957 226.829,81.344 227.287,81.397 227.846 M138.093 235.446 C 145.358 240.189,146.216 240.992,145.480 242.367 C 144.422 244.344,142.627 243.503,137.230 238.504 C 134.969 236.410,132.621 234.959,131.491 234.959 C 128.400 234.959,126.239 232.992,127.569 231.389 C 129.098 229.547,128.991 229.506,138.093 235.446 M144.951 233.439 C 145.895 234.594,146.128 235.498,145.615 236.011 C 144.697 236.929,137.398 232.981,137.398 231.567 C 137.398 230.035,143.382 231.519,144.951 233.439 M287.784 240.997 C 287.270 241.511,287.016 240.661,287.062 238.577 C 287.131 235.404,287.140 235.394,287.854 237.785 C 288.300 239.282,288.273 240.507,287.784 240.997 M133.350 237.813 C 136.490 239.437,137.728 241.767,136.585 243.902 C 135.554 245.829,136.743 246.079,138.257 244.254 C 139.344 242.944,141.357 245.131,141.435 247.706 C 141.530 250.873,134.518 252.264,131.420 249.693 C 130.470 248.904,130.094 249.201,129.356 251.318 C 128.484 253.819,128.399 253.859,126.877 252.482 C 125.368 251.117,125.115 251.142,120.984 253.073 C 118.609 254.183,115.843 255.317,114.837 255.594 C 113.831 255.871,112.276 256.305,111.382 256.559 C 109.463 257.103,109.253 255.571,110.700 251.570 C 111.571 249.161,111.972 248.933,115.910 248.606 C 121.602 248.134,124.390 246.265,124.390 242.920 C 124.390 237.815,128.653 235.385,133.350 237.813 M312.195 240.234 C 312.195 243.827,311.251 244.652,302.871 248.386 C 296.990 251.006,295.693 251.335,295.075 250.358 C 293.691 248.171,294.357 247.564,302.669 243.437 C 309.054 240.268,310.916 238.979,310.718 237.868 C 310.565 237.007,310.811 236.639,311.328 236.958 C 311.805 237.253,312.195 238.727,312.195 240.234 M290.244 244.669 C 290.244 245.484,289.512 246.343,288.618 246.577 C 286.753 247.065,286.171 243.519,288.008 242.860 C 289.468 242.337,290.244 242.965,290.244 244.669 M116.260 245.480 C 116.260 246.440,114.675 247.466,114.092 246.883 C 113.510 246.301,114.536 244.715,115.495 244.715 C 115.916 244.715,116.260 245.060,116.260 245.480 M292.587 250.407 C 293.775 254.371,294.239 254.390,302.112 250.802 C 309.733 247.329,309.311 246.294,305.599 259.350 C 303.883 265.386,300.953 276.270,299.088 283.537 C 295.124 298.981,296.844 297.855,281.954 294.756 C 265.079 291.245,255.569 287.916,256.380 285.803 C 256.608 285.210,261.485 278.204,267.218 270.235 L 277.642 255.745 278.620 262.155 C 280.112 271.933,281.344 272.302,293.736 266.683 C 299.084 264.258,302.267 261.780,297.901 263.440 C 296.696 263.898,295.646 264.171,295.568 264.047 C 294.075 261.659,293.728 257.318,294.952 256.353 C 296.571 255.079,292.772 255.650,289.937 257.107 C 287.903 258.153,287.020 256.680,287.004 252.210 C 286.994 249.353,287.320 248.596,288.821 247.993 C 291.540 246.900,291.535 246.897,292.587 250.407 M243.060 250.867 C 244.100 251.885,243.945 252.033,241.841 252.038 C 240.515 252.040,238.466 252.546,237.286 253.162 C 235.056 254.325,230.894 254.032,230.894 252.711 C 230.894 249.807,240.493 248.352,243.060 250.867 M136.382 252.834 C 136.941 252.841,137.398 253.577,137.398 254.472 C 137.398 256.455,135.247 256.615,132.688 254.822 C 130.532 253.312,131.150 251.692,133.628 252.357 C 134.584 252.614,135.823 252.828,136.382 252.834 M231.119 255.792 C 237.925 256.725,237.167 259.717,230.303 259.014 C 224.127 258.381,223.478 258.115,224.106 256.478 C 224.615 255.153,225.691 255.048,231.119 255.792 M270.581 261.762 C 265.718 268.261,265.516 268.321,266.675 262.924 C 267.485 259.148,270.246 256.672,274.199 256.176 C 274.540 256.133,272.913 258.647,270.581 261.762 M111.382 259.250 C 111.382 259.642,110.833 260.419,110.163 260.976 C 109.144 261.821,108.943 261.704,108.943 260.262 C 108.943 259.270,109.462 258.537,110.163 258.537 C 110.833 258.537,111.382 258.858,111.382 259.250 M63.415 266.308 C 63.415 268.741,63.780 270.732,64.228 270.732 C 64.675 270.732,65.041 269.836,65.041 268.741 C 65.041 266.893,65.211 266.810,67.427 267.583 L 69.814 268.415 69.347 273.985 L 68.880 279.554 72.042 278.821 C 78.302 277.369,78.701 277.721,75.084 281.504 C 73.267 283.404,71.146 286.606,70.371 288.618 C 67.762 295.386,65.330 296.519,66.143 290.588 L 66.653 286.866 63.611 289.232 C 57.794 293.755,55.903 293.187,60.260 288.225 C 62.815 285.315,62.817 285.302,60.681 286.276 C 57.067 287.922,57.123 286.213,60.786 283.063 C 63.979 280.317,66.282 273.431,63.415 275.203 C 62.967 275.480,62.602 276.757,62.602 278.041 C 62.602 280.550,58.195 284.600,56.957 283.230 C 56.436 282.654,59.913 265.933,61.384 261.940 C 62.243 259.609,63.415 262.129,63.415 266.308 M270.623 294.295 C 276.272 295.628,283.428 297.183,286.524 297.750 C 291.405 298.643,292.234 299.051,292.763 300.813 C 293.099 301.931,294.712 307.053,296.349 312.195 C 297.985 317.337,299.465 322.601,299.637 323.891 C 300.058 327.038,300.457 327.295,302.900 325.987 C 305.335 324.684,306.470 325.733,306.492 329.309 C 306.520 334.064,302.929 334.419,289.837 330.959 C 275.338 327.127,272.854 325.574,280.285 324.988 L 284.146 324.683 279.878 324.537 C 276.201 324.411,275.610 324.165,275.610 322.764 C 275.610 321.861,275.068 321.138,274.390 321.138 C 273.720 321.138,273.171 321.735,273.171 322.465 C 273.171 324.089,262.673 323.730,259.430 321.994 L 257.487 320.954 257.980 308.241 C 258.441 296.339,258.978 291.870,259.946 291.870 C 260.169 291.870,264.974 292.961,270.623 294.295 M255.303 324.187 C 255.313 324.522,255.969 325.639,256.761 326.669 L 258.202 328.541 261.824 327.013 C 264.613 325.837,266.477 325.606,269.919 326.012 L 274.390 326.539 270.658 328.291 C 261.010 332.819,247.967 332.456,247.967 327.660 C 247.967 325.091,255.228 321.653,255.303 324.187 M260.636 324.390 C 262.338 324.390,262.037 325.762,260.231 326.234 C 258.674 326.641,256.911 325.530,256.911 324.141 C 256.911 323.735,257.489 323.625,258.197 323.897 C 258.904 324.168,260.001 324.390,260.636 324.390 " stroke="none" fill="#ffffff" fill-rule="evenodd">
</path>
</g>
</svg>